<?xml version="1.0" standalone="no"?>
<!DOCTYPE svg PUBLIC "-//W3C//DTD SVG 20010904//EN"
 "http://www.w3.org/TR/2001/REC-SVG-20010904/DTD/svg10.dtd">
<svg version="1.0" xmlns="http://www.w3.org/2000/svg"
 width="560.000000pt" height="268.000000pt" viewBox="0 0 560.000000 268.000000"
 preserveAspectRatio="xMidYMid meet">

<g transform="translate(0.000000,268.000000) scale(0.100000,-0.100000)"
fill="#000000" stroke="none">
<path d="M365 2555 c-46 -45 -35 -78 123 -363 l34 -63 -20 -22 c-57 -62 -438
-608 -454 -649 -70 -185 52 -400 246 -437 26 -5 49 -10 51 -13 2 -2 -7 -33
-22 -68 -63 -158 7 -335 165 -412 l67 -33 420 -5 420 -5 90 -170 c96 -182 116
-203 174 -190 36 8 59 33 66 71 4 22 -6 51 -45 124 -132 249 -136 257 -117
278 36 40 399 580 425 632 53 109 31 259 -53 358 -38 45 -118 89 -186 103
l-57 11 23 52 c34 75 40 132 21 207 -28 106 -89 182 -186 228 l-55 26 -415 2
-415 2 -87 163 c-48 90 -97 171 -109 181 -31 25 -75 22 -104 -8z m1090 -516
c77 -21 120 -82 113 -163 -3 -40 -14 -66 -47 -114 l-42 -62 -232 0 c-128 0
-248 -3 -267 -6 -32 -5 -37 -2 -56 33 -49 89 -164 311 -164 317 0 11 653 7
695 -5z m-751 -257 c47 -89 86 -164 86 -167 0 -2 -39 -59 -87 -126 -49 -66
-117 -162 -153 -211 l-65 -91 -90 2 c-76 2 -96 6 -126 26 -48 31 -73 84 -67
144 4 42 26 76 203 324 109 153 202 274 206 270 3 -5 45 -81 93 -171z m646
-262 c0 -12 -161 -251 -194 -289 -40 -45 -72 -51 -271 -51 -102 0 -185 3 -185
6 0 4 47 73 105 154 138 194 130 190 368 190 117 0 177 -4 177 -10z m374 -1
c87 -22 141 -115 113 -196 -7 -21 -33 -67 -58 -103 -25 -36 -107 -157 -183
-268 -76 -112 -142 -200 -146 -195 -4 4 -47 81 -95 171 l-86 162 29 38 c16 20
84 119 152 220 l123 182 54 0 c30 0 74 -5 97 -11z m-568 -587 c23 -42 65 -121
93 -174 l52 -98 -288 1 c-158 0 -325 4 -371 8 -76 7 -86 11 -118 42 -39 38
-58 93 -48 145 3 19 26 62 50 95 l44 59 272 0 273 0 41 -78z"/>
<path d="M3870 1704 c-158 -43 -258 -161 -268 -319 -13 -209 128 -363 349
-382 81 -7 193 16 264 55 l50 27 3 143 3 142 -76 0 -75 0 0 -104 0 -104 -37
-13 c-58 -19 -152 -15 -198 9 -101 52 -146 160 -114 275 12 43 59 101 100 123
82 42 194 35 268 -17 l44 -31 46 44 c25 24 48 44 50 45 10 6 -33 42 -80 68
-101 55 -219 69 -329 39z"/>
<path d="M2240 1360 l0 -350 270 0 270 0 0 65 0 65 -195 0 -196 0 3 83 3 82
163 3 162 2 0 55 0 55 -162 2 -163 3 -3 78 -3 77 191 0 190 0 0 65 0 65 -265
0 -265 0 0 -350z"/>
<path d="M2840 1360 l0 -350 163 0 c89 0 193 5 231 10 136 20 225 80 278 188
30 60 33 76 33 152 0 76 -3 92 -33 152 -36 74 -79 115 -159 153 -70 33 -157
45 -350 45 l-163 0 0 -350z m435 189 c74 -38 110 -101 109 -190 0 -89 -36
-151 -109 -188 -43 -23 -65 -26 -162 -29 l-113 -4 0 222 0 222 113 -3 c97 -4
119 -8 162 -30z"/>
<path d="M4332 1363 l3 -348 273 -3 272 -2 0 65 0 65 -195 0 -195 0 0 80 0 80
165 0 165 0 0 65 0 65 -165 0 -165 0 0 75 0 75 190 0 190 0 0 65 0 65 -270 0
-270 0 2 -347z"/>
<path d="M4946 1698 c4 -7 58 -83 121 -169 62 -86 113 -160 113 -163 0 -4 -37
-57 -83 -119 -144 -194 -167 -226 -167 -232 0 -3 40 -5 88 -5 l89 0 82 120
c46 66 87 117 92 115 4 -3 44 -57 89 -120 l82 -115 74 0 c73 0 74 0 74 26 0
18 -37 77 -114 181 l-114 155 114 156 c63 85 114 161 114 169 0 10 -20 13 -77
13 l-78 0 -78 -110 c-43 -61 -81 -110 -85 -110 -4 0 -42 50 -85 110 l-79 110
-90 0 c-68 0 -87 -3 -82 -12z"/>
</g>
</svg>
